<?xml version="1.0" encoding="UTF-8"?>
<svg width="60px" height="75px" viewBox="0 0 60 75" version="1.1" xmlns="http://www.w3.org/2000/svg" xmlns:xlink="http://www.w3.org/1999/xlink">
    <!-- Generator: sketchtool 58 (101010) - https://sketch.com -->
    <title>9A446CB5-C04D-43E2-B314-CF6C1A6CF00C</title>
    <desc>Created with sketchtool.</desc>
    <g id="Idrett---dugnad" stroke="none" stroke-width="1" fill="none" fill-rule="evenodd" stroke-linecap="round" stroke-linejoin="round">
        <g id="XL---Dugnad---Home" transform="translate(-796.000000, -5615.000000)" stroke="#736E6B" stroke-width="4">
            <g id="support" transform="translate(377.000000, 5458.000000)">
                <g id="tlf" transform="translate(4.000000, 95.000000)">
                    <g id="coffee-cup-hot" transform="translate(417.000000, 64.000000)">
                        <path d="M15.429303,17.1428571 C14.3312198,16.0061738 13.7142857,14.4642239 13.7142857,12.8563853 C13.7142857,11.2485466 14.3312198,9.7065967 15.429303,8.56991338 C17.7140418,6.20318785 17.7140418,2.36672553 15.429303,0" id="Path"></path>
                        <path d="M28.0007316,17.1428571 C26.9026484,16.0061738 26.2857143,14.4642239 26.2857143,12.8563853 C26.2857143,11.2485466 26.9026484,9.7065967 28.0007316,8.56991338 C30.2854704,6.20318785 30.2854704,2.36672553 28.0007316,0" id="Path"></path>
                        <path d="M40.5721602,17.1428571 C39.474077,16.0061738 38.8571429,14.4642239 38.8571429,12.8563853 C38.8571429,11.2485466 39.474077,9.7065967 40.5721602,8.56991338 C42.856899,6.20318785 42.856899,2.36672553 40.5721602,0" id="Path"></path>
                        <ellipse id="Oval" cx="28" cy="34.2857143" rx="20" ry="9.14285714"></ellipse>
                        <path d="M47.9965535,34.2857143 C48.0736095,41.1088643 46.8579239,47.8858148 44.4125252,54.2652076 C44.0616244,55.1564876 43.502931,55.9529948 42.782023,56.5897507 C38.659243,60.040055 33.3953097,61.8615804 27.9998287,61.704964 C22.6095982,61.8577996 17.3518097,60.0365054 13.2330166,56.5897507 C12.5111389,55.9538458 11.9522715,55.1570904 11.6025144,54.2652076 C9.15088004,47.8870833 7.92993763,41.1099149 8.00310394,34.2857143" id="Path"></path>
                        <path d="M47.348,44.5714286 C52.6804444,47.3605095 56,51.2633918 56,55.5995887 C56,64.0248101 43.4653333,70.8571429 28,70.8571429 C12.5346667,70.8571429 0,64.0248101 0,55.5995887 C0,51.2633918 3.31955556,47.3605095 8.64888889,44.5714286" id="Path"></path>
                        <path d="M13.7967664,41.1428571 C12.8888261,37.426768 19.5967905,34.2857143 28,34.2857143 C36.4032095,34.2857143 43.1111739,37.426768 42.2032336,41.1428571" id="Path"></path>
                    </g>
                </g>
            </g>
        </g>
    </g>
</svg>